# xmcd
#
# Track frame offsets: 
#        151
#        14959
#        25941
#        40049
#        53604
#        64349
#        75075
#        87740
#        100451
#        111064
#        122095
#        131967
#        143968
#        157379
#        167388
#        177082
#
# Disc length: 2520 seconds
#
# Revision: 0
# Processed by: cddbd v1.5.2PL0 Copyright (c) Steve Scherf et al.
# Submitted via: ExactAudioCopyFreeDBPlugin 1.0
#
DISCID=dd09d610
DTITLE=Slim Whitman - 15th Anniversary Album
DYEAR=1967
DGENRE=Country
TTITLE0=Indian love call
TTITLE1=Bandera Waltz
TTITLE2=China Doll
TTITLE3=I'll take you home again Kathleen
TTITLE4=Tumbling Tumbleweeds
TTITLE5=Serenade 
TTITLE6=More Than Yesterday
TTITLE7=Love Song Of The Waterfall
TTITLE8=North Wind
TTITLE9=Rose Marie
TTITLE10=Cattle Call
TTITLE11=Keep It A Secret
TTITLE12=I'm A Fool 
TTITLE13=There's A Rainbow In Every Teardrop
TTITLE14=Valley Of Tears
TTITLE15=Secret Love
EXTD=
EXTT0=
EXTT1=
EXTT2=
EXTT3=
EXTT4=
EXTT5=
EXTT6=
EXTT7=
EXTT8=
EXTT9=
EXTT10=
EXTT11=
EXTT12=
EXTT13=
EXTT14=
EXTT15=
PLAYORDER=
